<?xml version="1.0" standalone="no"?>
<!DOCTYPE svg PUBLIC "-//W3C//DTD SVG 20010904//EN"
 "http://www.w3.org/TR/2001/REC-SVG-20010904/DTD/svg10.dtd">
<svg version="1.0" xmlns="http://www.w3.org/2000/svg"
 width="512.000000pt" height="512.000000pt" viewBox="0 0 512.000000 512.000000"
 preserveAspectRatio="xMidYMid meet">
<metadata>
Created by potrace 1.11, written by Peter Selinger 2001-2013
</metadata>
<g transform="translate(0.000000,512.000000) scale(0.100000,-0.100000)"
fill="#000000" stroke="none">
<path d="M2630 4365 c-36 -8 -101 -32 -145 -54 -152 -76 -257 -211 -319 -413
-3 -11 -21 -19 -53 -23 -263 -37 -551 -148 -784 -302 -124 -83 -212 -154 -329
-269 -77 -75 -92 -85 -155 -105 -256 -79 -514 -283 -699 -552 -58 -85 -132
-236 -142 -291 -6 -37 -6 -38 17 -31 13 4 67 27 119 52 l95 44 46 97 c71 147
171 240 283 261 26 5 46 6 44 2 -2 -3 -22 -42 -45 -87 -188 -365 -322 -850
-377 -1366 -17 -154 -36 -437 -36 -530 l0 -58 360 0 c287 0 360 3 360 13 0 54
-54 192 -91 233 -19 20 -18 23 30 190 94 321 164 494 201 494 14 0 19 -12 24
-57 5 -51 -4 -265 -19 -438 -14 -159 -36 -373 -40 -402 l-6 -33 362 0 361 0
-7 47 c-9 61 -39 136 -74 187 l-29 41 8 108 c30 390 140 590 367 669 60 20 87
23 224 23 117 0 160 -3 172 -14 53 -43 -18 -356 -192 -846 -39 -110 -71 -203
-71 -207 0 -4 182 -8 405 -8 l405 0 -6 33 c-21 121 -63 200 -139 263 l-47 39
7 83 c9 114 38 250 64 300 27 52 50 66 79 46 49 -34 165 -267 293 -589 l68
-170 335 -3 c383 -3 348 -13 321 93 -35 135 -135 239 -257 269 -32 7 -52 56
-135 323 -80 262 -263 909 -263 934 0 42 33 79 99 110 36 17 79 33 97 36 33 5
35 4 87 -77 36 -55 64 -66 130 -51 30 8 66 11 78 8 13 -4 72 -59 131 -124 59
-65 141 -154 183 -198 88 -93 92 -110 41 -177 -39 -51 -52 -58 -105 -58 -62 0
-101 41 -66 70 30 25 18 66 -36 120 -62 62 -99 66 -135 13 -38 -57 -77 -191
-78 -273 -2 -134 58 -200 202 -220 176 -25 350 45 490 195 l61 64 94 -39 c214
-90 444 -109 593 -49 27 11 24 13 -68 34 -206 48 -335 98 -455 177 -35 22 -63
41 -63 43 0 1 18 40 39 86 101 216 127 346 118 579 -10 246 -54 479 -142 745
-104 318 -235 542 -370 635 -78 54 -413 155 -612 185 -50 8 -109 22 -130 33
-68 35 -231 92 -335 118 -131 32 -340 41 -438 19z"/>
</g>
</svg>
